# xmcd
# 
# Track frame offsets:
#     150
#     17403
#     32763
#     45818
#     60295
#     77150
#     93030
#     113395
#     133618
#     145718
#     160005
#     178785
#     194985
#     221583
#     237763
#     253803
#     269775
#     288738
#     305575
#     324800
#     341855
# 
# Disc length: 4764
# 
# Revision: 30
# Processed by: cddbd v1.5.2PL0 Copyright (c) Steve Scherf et al.
# Submitted via: fre:ac v1.0.31
# 
DISCID=26129a15
DTITLE=Slade - Greatest Hits - Feel The Noize
DYEAR=1997
DGENRE=Heavy Metal
TTITLE0=Get Down And Get With It
TTITLE1=Coz I Luv You
TTITLE2=Look Wot You Dun
TTITLE3=Take Me Bak 'Ome
TTITLE4=Mama Weer All Crazee Now
TTITLE5=Gudbuy T'Jane
TTITLE6=Cum On Feel The Noize
TTITLE7=Skweeze Me, Pleeze Me
TTITLE8=My Friend Stan
TTITLE9=Everyday
TTITLE10=Bangin' Man
TTITLE11=Far Far Away
TTITLE12=How Does It Feel
TTITLE13=In For A Penny
TTITLE14=We'll Bring The House Down
TTITLE15=Lock Up Your Daughters
TTITLE16=My Oh My
TTITLE17=Run Run Away
TTITLE18=All Join Hands
TTITLE19=Radio Wall Of Sound
TTITLE20=Merry Xmas Everybody
EXTD=YEAR: 1997
EXTT0=
EXTT1=
EXTT2=
EXTT3=
EXTT4=
EXTT5=
EXTT6=
EXTT7=
EXTT8=
EXTT9=
EXTT10=
EXTT11=
EXTT12=
EXTT13=
EXTT14=
EXTT15=
EXTT16=
EXTT17=
EXTT18=
EXTT19=
EXTT20=
PLAYORDER=
